<?xml version="1.0" encoding="UTF-8"?>
<svg id="Layer_1" data-name="Layer 1" xmlns="http://www.w3.org/2000/svg" xmlns:xlink="http://www.w3.org/1999/xlink" viewBox="0 0 170 170">
  <defs>
    <style>
      .cls-1, .cls-2 {
        stroke-width: 0px;
      }

      .cls-1, .cls-3 {
        fill: #3032eb;
      }

      .cls-4 {
        clip-path: url(#clippath);
      }

      .cls-2 {
        fill: #fff;
      }
    </style>
    <clipPath id="clippath">
      <circle class="cls-1" cx="84.88" cy="85.12" r="81.04"/>
    </clipPath>
  </defs>
  <g>
    <circle class="cls-3" cx="84.88" cy="85.12" r="81.04"/>
    <g class="cls-4">
      <rect class="cls-1" x="-6.22" y="-.95" width="172.14" height="172.14"/>
    </g>
  </g>
  <g>
    <path class="cls-2" d="M131.08,99.59c-.98,0-1.86,0-2.75,0-1.2,0-2.39-.01-3.58,0-.39,0-.54-.14-.61-.51-.21-1.11-.47-2.22-.68-3.34-.07-.39-.25-.49-.62-.49-2.87.01-5.74.01-8.62,0-.36,0-.55.11-.67.46-.39,1.15-.81,2.29-1.24,3.42-.07.18-.28.43-.43.43-2.46.03-4.93.02-7.47.02.07-.22.11-.38.17-.52,3.64-8.7,7.28-17.4,10.92-26.1.63-1.5,1.74-2.24,3.37-2.23,1.89.01,3.78.01,5.67,0,.38,0,.56.07.65.5,1.28,6.22,2.59,12.43,3.89,18.65.63,3.03,1.27,6.06,1.9,9.1.03.17.05.34.09.61ZM115.87,89.38h6.25c-.75-3.6-1.49-7.15-2.23-10.7-.05,0-.1,0-.15,0-1.28,3.54-2.56,7.07-3.87,10.7Z"/>
    <path class="cls-2" d="M58.2,90.2c.08-.21.17-.41.25-.62,2.42-6.11,4.83-12.21,7.24-18.32.16-.41.35-.55.79-.54,2.2.02,4.4.01,6.59.01.19,0,.37.02.63.03-.59,1.41-1.14,2.76-1.7,4.1-3.38,8.07-6.76,16.13-10.12,24.2-.18.42-.39.58-.85.57-2.22-.02-4.43-.03-6.65,0-.5,0-.69-.16-.81-.63-1.91-7.48-3.86-14.95-5.76-22.44-.34-1.34-.98-2.35-2.3-2.81-2.05-.72-4.12-1.38-6.18-2.07-.22-.07-.44-.11-.63-.16-.09-.72.28-.81.86-.81,3.93.02,7.87.01,11.8.01,1.93,0,3.22,1.03,3.59,2.93,1.01,5.28,2,10.56,3,15.84.04.23.09.45.14.68.04.01.09.02.13.04Z"/>
    <path class="cls-2" d="M83.42,98.49c.45-2.09.89-4.13,1.34-6.25.44.2.84.38,1.24.55,2.55,1.09,5.19,1.56,7.95,1.09.86-.15,1.67-.48,2.3-1.12.85-.87.96-2.09.11-2.96-.61-.62-1.37-1.12-2.12-1.58-1.54-.95-3.19-1.73-4.66-2.77-1.7-1.2-2.89-2.85-3.05-5.02-.22-2.92.84-5.32,3.05-7.21,2.1-1.8,4.61-2.59,7.3-2.91,2.93-.35,5.8.01,8.6.94.18.06.35.14.58.23-.43,2.01-.85,3.99-1.27,5.97-1.14-.34-2.24-.73-3.38-.97-1.69-.36-3.41-.51-5.08.05-.55.18-1.09.51-1.51.91-.81.74-.82,1.8-.03,2.56.55.53,1.2.97,1.85,1.36,1.42.85,2.91,1.59,4.31,2.47,5.78,3.61,4.04,10.48.59,13.24-2.01,1.61-4.31,2.45-6.81,2.79-3.59.49-7.11.13-10.55-1-.2-.07-.4-.15-.59-.23-.05-.02-.09-.06-.18-.12Z"/>
    <path class="cls-2" d="M84.39,70.76c-2.06,9.63-4.1,19.2-6.15,28.8h-7.44c2.06-9.62,4.1-19.2,6.16-28.8h7.43Z"/>
  </g>
</svg>